<?xml version="1.0" encoding="UTF-8" standalone="no"?>
<!DOCTYPE svg PUBLIC "-//W3C//DTD SVG 1.1//EN"
 "http://www.w3.org/Graphics/SVG/1.1/DTD/svg11.dtd">
<!-- Generated by graphviz version 2.50.0 (20211204.2007)
 -->
<!-- Title: g Pages: 1 -->
<svg width="160pt" height="392pt"
 viewBox="0.00 0.00 160.00 392.00" xmlns="http://www.w3.org/2000/svg" xmlns:xlink="http://www.w3.org/1999/xlink">
<g id="graph0" class="graph" transform="scale(1 1) rotate(0) translate(4 388)">
<title>g</title>
<polygon fill="white" stroke="transparent" points="-4,4 -4,-388 156,-388 156,4 -4,4"/>
<!-- 1 -->
<g id="node1" class="node">
<title>1</title>
<ellipse fill="none" stroke="black" cx="90" cy="-366" rx="27" ry="18"/>
<text text-anchor="middle" x="90" y="-362.3" font-family="Times New Roman,serif" font-size="14.00">1</text>
</g>
<!-- 2 -->
<g id="node2" class="node">
<title>2</title>
<ellipse fill="none" stroke="black" cx="27" cy="-279" rx="27" ry="18"/>
<text text-anchor="middle" x="27" y="-275.3" font-family="Times New Roman,serif" font-size="14.00">2</text>
</g>
<!-- 1&#45;&gt;2 -->
<g id="edge1" class="edge">
<title>1&#45;&gt;2</title>
<path fill="none" stroke="black" d="M77.52,-349.83C72.59,-343.74 66.94,-336.6 62,-330 55.84,-321.78 49.33,-312.61 43.61,-304.4"/>
<polygon fill="black" stroke="black" points="46.34,-302.19 37.78,-295.95 40.58,-306.17 46.34,-302.19"/>
<text text-anchor="middle" x="69" y="-318.8" font-family="Times New Roman,serif" font-size="14.00">10</text>
</g>
<!-- 4 -->
<g id="node3" class="node">
<title>4</title>
<ellipse fill="none" stroke="black" cx="70" cy="-192" rx="27" ry="18"/>
<text text-anchor="middle" x="70" y="-188.3" font-family="Times New Roman,serif" font-size="14.00">4</text>
</g>
<!-- 1&#45;&gt;4 -->
<g id="edge2" class="edge">
<title>1&#45;&gt;4</title>
<path fill="none" stroke="black" d="M88.01,-347.88C84.54,-318 77.34,-256.11 73.17,-220.27"/>
<polygon fill="black" stroke="black" points="76.61,-219.58 71.98,-210.05 69.66,-220.39 76.61,-219.58"/>
<text text-anchor="middle" x="84.5" y="-275.3" font-family="Times New Roman,serif" font-size="14.00">5</text>
</g>
<!-- 2&#45;&gt;4 -->
<g id="edge4" class="edge">
<title>2&#45;&gt;4</title>
<path fill="none" stroke="black" d="M29.98,-260.67C32.15,-250.72 35.65,-238.22 41,-228 43.3,-223.6 46.23,-219.25 49.33,-215.19"/>
<polygon fill="black" stroke="black" points="52.14,-217.28 55.8,-207.34 46.74,-212.83 52.14,-217.28"/>
<text text-anchor="middle" x="44.5" y="-231.8" font-family="Times New Roman,serif" font-size="14.00">2</text>
</g>
<!-- 3 -->
<g id="node4" class="node">
<title>3</title>
<ellipse fill="none" stroke="black" cx="86" cy="-18" rx="27" ry="18"/>
<text text-anchor="middle" x="86" y="-14.3" font-family="Times New Roman,serif" font-size="14.00">3</text>
</g>
<!-- 2&#45;&gt;3 -->
<g id="edge3" class="edge">
<title>2&#45;&gt;3</title>
<path fill="none" stroke="black" d="M27.97,-260.87C28.53,-251.22 29.27,-238.93 30,-228 31.61,-203.99 29.25,-197.59 34,-174 43.37,-127.5 62.66,-75.66 74.93,-45.27"/>
<polygon fill="black" stroke="black" points="78.25,-46.4 78.8,-35.82 71.77,-43.75 78.25,-46.4"/>
<text text-anchor="middle" x="44.5" y="-144.8" font-family="Times New Roman,serif" font-size="14.00">1</text>
</g>
<!-- 4&#45;&gt;2 -->
<g id="edge6" class="edge">
<title>4&#45;&gt;2</title>
<path fill="none" stroke="black" d="M62.42,-209.31C57.8,-219.13 51.7,-231.85 46,-243 44.38,-246.17 42.64,-249.49 40.89,-252.76"/>
<polygon fill="black" stroke="black" points="37.73,-251.25 36.06,-261.71 43.89,-254.57 37.73,-251.25"/>
<text text-anchor="middle" x="55.5" y="-231.8" font-family="Times New Roman,serif" font-size="14.00">3</text>
</g>
<!-- 4&#45;&gt;3 -->
<g id="edge7" class="edge">
<title>4&#45;&gt;3</title>
<path fill="none" stroke="black" d="M71.59,-173.88C74.37,-144 80.13,-82.11 83.46,-46.27"/>
<polygon fill="black" stroke="black" points="86.97,-46.33 84.41,-36.05 80,-45.68 86.97,-46.33"/>
<text text-anchor="middle" x="82.5" y="-101.3" font-family="Times New Roman,serif" font-size="14.00">9</text>
</g>
<!-- 5 -->
<g id="node5" class="node">
<title>5</title>
<ellipse fill="none" stroke="black" cx="125" cy="-105" rx="27" ry="18"/>
<text text-anchor="middle" x="125" y="-101.3" font-family="Times New Roman,serif" font-size="14.00">5</text>
</g>
<!-- 4&#45;&gt;5 -->
<g id="edge8" class="edge">
<title>4&#45;&gt;5</title>
<path fill="none" stroke="black" d="M80.35,-175.01C88.49,-162.43 99.97,-144.68 109.26,-130.33"/>
<polygon fill="black" stroke="black" points="112.21,-132.21 114.7,-121.92 106.33,-128.41 112.21,-132.21"/>
<text text-anchor="middle" x="103.5" y="-144.8" font-family="Times New Roman,serif" font-size="14.00">2</text>
</g>
<!-- 3&#45;&gt;5 -->
<g id="edge5" class="edge">
<title>3&#45;&gt;5</title>
<path fill="none" stroke="black" d="M98.68,-34.3C103.07,-40.18 107.71,-47.13 111,-54 114.43,-61.15 117.15,-69.3 119.25,-76.91"/>
<polygon fill="black" stroke="black" points="115.91,-77.96 121.74,-86.8 122.7,-76.25 115.91,-77.96"/>
<text text-anchor="middle" x="119.5" y="-57.8" font-family="Times New Roman,serif" font-size="14.00">4</text>
</g>
<!-- 5&#45;&gt;1 -->
<g id="edge9" class="edge">
<title>5&#45;&gt;1</title>
<path fill="none" stroke="black" d="M123.54,-123.23C120.22,-160.91 111.33,-253.4 98,-330 97.54,-332.67 97,-335.45 96.42,-338.21"/>
<polygon fill="black" stroke="black" points="93.01,-337.46 94.27,-347.98 99.84,-338.97 93.01,-337.46"/>
<text text-anchor="middle" x="115.5" y="-231.8" font-family="Times New Roman,serif" font-size="14.00">7</text>
</g>
<!-- 5&#45;&gt;3 -->
<g id="edge10" class="edge">
<title>5&#45;&gt;3</title>
<path fill="none" stroke="black" d="M115.71,-87.82C112.48,-81.97 108.94,-75.26 106,-69 102.42,-61.38 98.89,-52.94 95.81,-45.2"/>
<polygon fill="black" stroke="black" points="99.07,-43.93 92.19,-35.88 92.55,-46.46 99.07,-43.93"/>
<text text-anchor="middle" x="109.5" y="-57.8" font-family="Times New Roman,serif" font-size="14.00">6</text>
</g>
</g>
</svg>
