<?xml version="1.0" encoding="UTF-8" standalone="no"?>
<!DOCTYPE svg PUBLIC "-//W3C//DTD SVG 1.1//EN"
 "http://www.w3.org/Graphics/SVG/1.1/DTD/svg11.dtd">
<!-- Generated by graphviz version 2.50.0 (20211204.2007)
 -->
<!-- Title: g Pages: 1 -->
<svg width="146pt" height="332pt"
 viewBox="0.00 0.00 146.00 332.00" xmlns="http://www.w3.org/2000/svg" xmlns:xlink="http://www.w3.org/1999/xlink">
<g id="graph0" class="graph" transform="scale(1 1) rotate(0) translate(4 328)">
<title>g</title>
<polygon fill="white" stroke="transparent" points="-4,4 -4,-328 142,-328 142,4 -4,4"/>
<!-- 1 -->
<g id="node1" class="node">
<title>1</title>
<ellipse fill="none" stroke="black" cx="82" cy="-306" rx="27" ry="18"/>
<text text-anchor="middle" x="82" y="-302.3" font-family="Times New Roman,serif" font-size="14.00">1</text>
</g>
<!-- 2 -->
<g id="node2" class="node">
<title>2</title>
<ellipse fill="none" stroke="black" cx="27" cy="-234" rx="27" ry="18"/>
<text text-anchor="middle" x="27" y="-230.3" font-family="Times New Roman,serif" font-size="14.00">2</text>
</g>
<!-- 1&#45;&#45;2 -->
<g id="edge1" class="edge">
<title>1&#45;&#45;2</title>
<path fill="none" stroke="black" d="M70.07,-289.81C60.84,-278.07 48.13,-261.89 38.91,-250.16"/>
</g>
<!-- 4 -->
<g id="node3" class="node">
<title>4</title>
<ellipse fill="none" stroke="black" cx="65" cy="-162" rx="27" ry="18"/>
<text text-anchor="middle" x="65" y="-158.3" font-family="Times New Roman,serif" font-size="14.00">4</text>
</g>
<!-- 1&#45;&#45;4 -->
<g id="edge2" class="edge">
<title>1&#45;&#45;4</title>
<path fill="none" stroke="black" d="M79.95,-287.87C76.68,-260.58 70.33,-207.52 67.06,-180.19"/>
</g>
<!-- 2&#45;&#45;4 -->
<g id="edge4" class="edge">
<title>2&#45;&#45;4</title>
<path fill="none" stroke="black" d="M30.32,-216.05C35.41,-204.4 43.81,-189.07 51.28,-177.89"/>
</g>
<!-- 3 -->
<g id="node4" class="node">
<title>3</title>
<ellipse fill="none" stroke="black" cx="83" cy="-18" rx="27" ry="18"/>
<text text-anchor="middle" x="83" y="-14.3" font-family="Times New Roman,serif" font-size="14.00">3</text>
</g>
<!-- 2&#45;&#45;3 -->
<g id="edge3" class="edge">
<title>2&#45;&#45;3</title>
<path fill="none" stroke="black" d="M25.45,-215.71C24.27,-197.6 23.66,-168.46 29,-144 37.98,-102.89 60.58,-58.52 73.52,-35.29"/>
</g>
<!-- 4&#45;&#45;2 -->
<g id="edge6" class="edge">
<title>4&#45;&#45;2</title>
<path fill="none" stroke="black" d="M61.64,-180.04C56.54,-191.7 48.15,-207 40.69,-218.15"/>
</g>
<!-- 4&#45;&#45;3 -->
<g id="edge7" class="edge">
<title>4&#45;&#45;3</title>
<path fill="none" stroke="black" d="M66.73,-143.91C68.58,-125.98 71.71,-96.97 75,-72 76.58,-60.01 78.62,-46.53 80.24,-36.16"/>
</g>
<!-- 5 -->
<g id="node5" class="node">
<title>5</title>
<ellipse fill="none" stroke="black" cx="111" cy="-90" rx="27" ry="18"/>
<text text-anchor="middle" x="111" y="-86.3" font-family="Times New Roman,serif" font-size="14.00">5</text>
</g>
<!-- 4&#45;&#45;5 -->
<g id="edge8" class="edge">
<title>4&#45;&#45;5</title>
<path fill="none" stroke="black" d="M75.44,-145.12C82.97,-133.66 93.08,-118.26 100.6,-106.82"/>
</g>
<!-- 3&#45;&#45;5 -->
<g id="edge5" class="edge">
<title>3&#45;&#45;5</title>
<path fill="none" stroke="black" d="M95,-34.67C100.69,-45.66 106.63,-60.36 109.99,-71.7"/>
</g>
<!-- 5&#45;&#45;1 -->
<g id="edge9" class="edge">
<title>5&#45;&#45;1</title>
<path fill="none" stroke="black" d="M109.28,-108.09C107.43,-126.02 104.3,-155.03 101,-180 95.88,-218.74 88.7,-264.04 84.79,-288.05"/>
</g>
<!-- 5&#45;&#45;3 -->
<g id="edge10" class="edge">
<title>5&#45;&#45;3</title>
<path fill="none" stroke="black" d="M99.07,-73.46C93.38,-62.51 87.44,-47.82 84.05,-36.46"/>
</g>
</g>
</svg>
