<?xml version="1.0" encoding="UTF-8" standalone="no"?>
<!DOCTYPE svg PUBLIC "-//W3C//DTD SVG 1.1//EN"
 "http://www.w3.org/Graphics/SVG/1.1/DTD/svg11.dtd">
<!-- Generated by graphviz version 2.50.0 (20211204.2007)
 -->
<!-- Title: g Pages: 1 -->
<svg width="122pt" height="260pt"
 viewBox="0.00 0.00 122.47 260.00" xmlns="http://www.w3.org/2000/svg" xmlns:xlink="http://www.w3.org/1999/xlink">
<g id="graph0" class="graph" transform="scale(1 1) rotate(0) translate(4 256)">
<title>g</title>
<polygon fill="white" stroke="transparent" points="-4,4 -4,-256 118.47,-256 118.47,4 -4,4"/>
<!-- 1 -->
<g id="node1" class="node">
<title>1</title>
<ellipse fill="none" stroke="black" cx="73" cy="-234" rx="27" ry="18"/>
<text text-anchor="middle" x="73" y="-230.3" font-family="Times New Roman,serif" font-size="14.00">1</text>
</g>
<!-- 2 -->
<g id="node2" class="node">
<title>2</title>
<ellipse fill="none" stroke="black" cx="73" cy="-162" rx="27" ry="18"/>
<text text-anchor="middle" x="73" y="-158.3" font-family="Times New Roman,serif" font-size="14.00">2</text>
</g>
<!-- 1&#45;&gt;2 -->
<g id="edge1" class="edge">
<title>1&#45;&gt;2</title>
<path fill="none" stroke="black" d="M73,-215.7C73,-207.98 73,-198.71 73,-190.11"/>
<polygon fill="black" stroke="black" points="76.5,-190.1 73,-180.1 69.5,-190.1 76.5,-190.1"/>
</g>
<!-- 3 -->
<g id="node3" class="node">
<title>3</title>
<ellipse fill="none" stroke="black" cx="27" cy="-90" rx="27" ry="18"/>
<text text-anchor="middle" x="27" y="-86.3" font-family="Times New Roman,serif" font-size="14.00">3</text>
</g>
<!-- 1&#45;&gt;3 -->
<g id="edge2" class="edge">
<title>1&#45;&gt;3</title>
<path fill="none" stroke="black" d="M59.79,-217.89C51.79,-207.85 42.17,-193.98 37,-180 29.68,-160.22 27.31,-136.42 26.7,-118.41"/>
<polygon fill="black" stroke="black" points="30.2,-118.23 26.52,-108.29 23.2,-118.35 30.2,-118.23"/>
</g>
<!-- 2&#45;&gt;3 -->
<g id="edge3" class="edge">
<title>2&#45;&gt;3</title>
<path fill="none" stroke="black" d="M62.56,-145.12C56.8,-136.34 49.52,-125.26 43.04,-115.42"/>
<polygon fill="black" stroke="black" points="45.81,-113.26 37.4,-106.82 39.96,-117.1 45.81,-113.26"/>
</g>
<!-- 4 -->
<g id="node4" class="node">
<title>4</title>
<ellipse fill="none" stroke="black" cx="82" cy="-18" rx="27" ry="18"/>
<text text-anchor="middle" x="82" y="-14.3" font-family="Times New Roman,serif" font-size="14.00">4</text>
</g>
<!-- 2&#45;&gt;4 -->
<g id="edge4" class="edge">
<title>2&#45;&gt;4</title>
<path fill="none" stroke="black" d="M74.09,-143.87C75.62,-119.67 78.44,-75.21 80.26,-46.39"/>
<polygon fill="black" stroke="black" points="83.77,-46.39 80.91,-36.19 76.78,-45.95 83.77,-46.39"/>
</g>
<!-- 3&#45;&gt;4 -->
<g id="edge5" class="edge">
<title>3&#45;&gt;4</title>
<path fill="none" stroke="black" d="M38.93,-73.81C46.21,-64.55 55.66,-52.52 63.85,-42.09"/>
<polygon fill="black" stroke="black" points="66.66,-44.18 70.09,-34.16 61.16,-39.86 66.66,-44.18"/>
</g>
<!-- 4&#45;&gt;1 -->
<g id="edge6" class="edge">
<title>4&#45;&gt;1</title>
<path fill="none" stroke="black" d="M89.61,-35.32C102.29,-64.77 124.83,-128.53 109,-180 105.71,-190.69 99.46,-201.15 93.07,-209.92"/>
<polygon fill="black" stroke="black" points="90.12,-208.02 86.75,-218.07 95.65,-212.31 90.12,-208.02"/>
</g>
</g>
</svg>
