<?xml version="1.0" encoding="UTF-8" standalone="no"?>
<!DOCTYPE svg PUBLIC "-//W3C//DTD SVG 1.1//EN"
 "http://www.w3.org/Graphics/SVG/1.1/DTD/svg11.dtd">
<!-- Generated by graphviz version 2.50.0 (20211204.2007)
 -->
<!-- Title: g Pages: 1 -->
<svg width="184pt" height="332pt"
 viewBox="0.00 0.00 183.70 332.00" xmlns="http://www.w3.org/2000/svg" xmlns:xlink="http://www.w3.org/1999/xlink">
<g id="graph0" class="graph" transform="scale(1 1) rotate(0) translate(4 328)">
<title>g</title>
<polygon fill="white" stroke="transparent" points="-4,4 -4,-328 179.7,-328 179.7,4 -4,4"/>
<!-- 1 -->
<g id="node1" class="node">
<title>1</title>
<ellipse fill="none" stroke="black" cx="65.7" cy="-306" rx="27" ry="18"/>
<text text-anchor="middle" x="65.7" y="-302.3" font-family="Times New Roman,serif" font-size="14.00">1</text>
</g>
<!-- 2 -->
<g id="node2" class="node">
<title>2</title>
<ellipse fill="none" stroke="black" cx="93.7" cy="-234" rx="27" ry="18"/>
<text text-anchor="middle" x="93.7" y="-230.3" font-family="Times New Roman,serif" font-size="14.00">2</text>
</g>
<!-- 1&#45;&gt;2 -->
<g id="edge1" class="edge">
<title>1&#45;&gt;2</title>
<path fill="none" stroke="black" d="M72.34,-288.41C75.62,-280.22 79.65,-270.14 83.32,-260.95"/>
<polygon fill="black" stroke="black" points="86.65,-262.05 87.12,-251.47 80.15,-259.45 86.65,-262.05"/>
</g>
<!-- 3 -->
<g id="node3" class="node">
<title>3</title>
<ellipse fill="none" stroke="black" cx="38.7" cy="-162" rx="27" ry="18"/>
<text text-anchor="middle" x="38.7" y="-158.3" font-family="Times New Roman,serif" font-size="14.00">3</text>
</g>
<!-- 1&#45;&gt;3 -->
<g id="edge2" class="edge">
<title>1&#45;&gt;3</title>
<path fill="none" stroke="black" d="M62.45,-287.87C57.85,-263.67 49.39,-219.21 43.91,-190.39"/>
<polygon fill="black" stroke="black" points="47.28,-189.36 41.97,-180.19 40.4,-190.67 47.28,-189.36"/>
</g>
<!-- 4 -->
<g id="node4" class="node">
<title>4</title>
<ellipse fill="none" stroke="black" cx="148.7" cy="-90" rx="27" ry="18"/>
<text text-anchor="middle" x="148.7" y="-86.3" font-family="Times New Roman,serif" font-size="14.00">4</text>
</g>
<!-- 1&#45;&gt;4 -->
<g id="edge3" class="edge">
<title>1&#45;&gt;4</title>
<path fill="none" stroke="black" d="M86.03,-293.92C100.77,-284.74 119.78,-270.25 129.7,-252 152.77,-209.61 153.46,-151.79 151.4,-118.22"/>
<polygon fill="black" stroke="black" points="154.89,-117.93 150.66,-108.22 147.91,-118.45 154.89,-117.93"/>
</g>
<!-- 5 -->
<g id="node5" class="node">
<title>5</title>
<ellipse fill="none" stroke="black" cx="66.7" cy="-18" rx="27" ry="18"/>
<text text-anchor="middle" x="66.7" y="-14.3" font-family="Times New Roman,serif" font-size="14.00">5</text>
</g>
<!-- 1&#45;&gt;5 -->
<g id="edge4" class="edge">
<title>1&#45;&gt;5</title>
<path fill="none" stroke="black" d="M52.98,-289.91C30.95,-261.92 -10.73,-199.73 2.7,-144 11.78,-106.38 34.2,-67.36 49.93,-43.13"/>
<polygon fill="black" stroke="black" points="52.98,-44.88 55.59,-34.61 47.15,-41 52.98,-44.88"/>
</g>
<!-- 2&#45;&gt;3 -->
<g id="edge5" class="edge">
<title>2&#45;&gt;3</title>
<path fill="none" stroke="black" d="M81.77,-217.81C74.49,-208.55 65.04,-196.52 56.85,-186.09"/>
<polygon fill="black" stroke="black" points="59.55,-183.86 50.62,-178.16 54.04,-188.18 59.55,-183.86"/>
</g>
<!-- 2&#45;&gt;4 -->
<g id="edge6" class="edge">
<title>2&#45;&gt;4</title>
<path fill="none" stroke="black" d="M100.12,-216.43C109.55,-192.09 127.25,-146.4 138.48,-117.4"/>
<polygon fill="black" stroke="black" points="141.81,-118.49 142.16,-107.9 135.28,-115.96 141.81,-118.49"/>
</g>
<!-- 2&#45;&gt;5 -->
<g id="edge7" class="edge">
<title>2&#45;&gt;5</title>
<path fill="none" stroke="black" d="M91.54,-215.85C86.87,-178.83 75.81,-91.18 70.16,-46.39"/>
<polygon fill="black" stroke="black" points="73.6,-45.72 68.88,-36.23 66.66,-46.59 73.6,-45.72"/>
</g>
<!-- 3&#45;&gt;4 -->
<g id="edge8" class="edge">
<title>3&#45;&gt;4</title>
<path fill="none" stroke="black" d="M57.87,-148.81C75.37,-137.67 101.46,-121.06 121.2,-108.5"/>
<polygon fill="black" stroke="black" points="123.21,-111.37 129.76,-103.05 119.45,-105.47 123.21,-111.37"/>
</g>
<!-- 3&#45;&gt;5 -->
<g id="edge9" class="edge">
<title>3&#45;&gt;5</title>
<path fill="none" stroke="black" d="M42.08,-143.87C46.88,-119.56 55.7,-74.82 61.38,-46.01"/>
<polygon fill="black" stroke="black" points="64.81,-46.68 63.32,-36.19 57.95,-45.32 64.81,-46.68"/>
</g>
<!-- 4&#45;&gt;5 -->
<g id="edge10" class="edge">
<title>4&#45;&gt;5</title>
<path fill="none" stroke="black" d="M132.5,-75.17C120.52,-64.94 104.01,-50.85 90.53,-39.34"/>
<polygon fill="black" stroke="black" points="92.47,-36.39 82.59,-32.56 87.93,-41.72 92.47,-36.39"/>
</g>
</g>
</svg>
