<?xml version="1.0" encoding="UTF-8" standalone="no"?>
<!DOCTYPE svg PUBLIC "-//W3C//DTD SVG 1.1//EN"
 "http://www.w3.org/Graphics/SVG/1.1/DTD/svg11.dtd">
<!-- Generated by graphviz version 2.50.0 (20211204.2007)
 -->
<!-- Title: g Pages: 1 -->
<svg width="232pt" height="620pt"
 viewBox="0.00 0.00 232.00 620.00" xmlns="http://www.w3.org/2000/svg" xmlns:xlink="http://www.w3.org/1999/xlink">
<g id="graph0" class="graph" transform="scale(1 1) rotate(0) translate(4 616)">
<title>g</title>
<polygon fill="white" stroke="transparent" points="-4,4 -4,-616 228,-616 228,4 -4,4"/>
<!-- 1 -->
<g id="node1" class="node">
<title>1</title>
<ellipse fill="none" stroke="black" cx="196" cy="-594" rx="27" ry="18"/>
<text text-anchor="middle" x="196" y="-590.3" font-family="Times New Roman,serif" font-size="14.00">1</text>
</g>
<!-- 2 -->
<g id="node2" class="node">
<title>2</title>
<ellipse fill="none" stroke="black" cx="169" cy="-522" rx="27" ry="18"/>
<text text-anchor="middle" x="169" y="-518.3" font-family="Times New Roman,serif" font-size="14.00">2</text>
</g>
<!-- 1&#45;&#45;2 -->
<g id="edge1" class="edge">
<title>1&#45;&#45;2</title>
<path fill="none" stroke="black" d="M189.6,-576.41C185.36,-565.41 179.81,-551.03 175.54,-539.96"/>
</g>
<!-- 8 -->
<g id="node3" class="node">
<title>8</title>
<ellipse fill="none" stroke="black" cx="181" cy="-90" rx="27" ry="18"/>
<text text-anchor="middle" x="181" y="-86.3" font-family="Times New Roman,serif" font-size="14.00">8</text>
</g>
<!-- 1&#45;&#45;8 -->
<g id="edge2" class="edge">
<title>1&#45;&#45;8</title>
<path fill="none" stroke="black" d="M201.53,-576.16C209.69,-549.79 224,-496.98 224,-451 224,-451 224,-451 224,-233 224,-185.6 201.79,-132.98 189.29,-107.13"/>
</g>
<!-- 2&#45;&#45;8 -->
<g id="edge4" class="edge">
<title>2&#45;&#45;8</title>
<path fill="none" stroke="black" d="M172.36,-504.03C177.31,-477.48 186,-424.44 186,-379 186,-379 186,-379 186,-233 186,-187.86 183.44,-134.69 181.99,-108.04"/>
</g>
<!-- 3 -->
<g id="node4" class="node">
<title>3</title>
<ellipse fill="none" stroke="black" cx="66" cy="-450" rx="27" ry="18"/>
<text text-anchor="middle" x="66" y="-446.3" font-family="Times New Roman,serif" font-size="14.00">3</text>
</g>
<!-- 2&#45;&#45;3 -->
<g id="edge3" class="edge">
<title>2&#45;&#45;3</title>
<path fill="none" stroke="black" d="M150.59,-508.49C131.84,-495.74 102.95,-476.11 84.25,-463.41"/>
</g>
<!-- 9 -->
<g id="node7" class="node">
<title>9</title>
<ellipse fill="none" stroke="black" cx="107" cy="-18" rx="27" ry="18"/>
<text text-anchor="middle" x="107" y="-14.3" font-family="Times New Roman,serif" font-size="14.00">9</text>
</g>
<!-- 8&#45;&#45;9 -->
<g id="edge14" class="edge">
<title>8&#45;&#45;9</title>
<path fill="none" stroke="black" d="M166.02,-74.83C153.19,-62.69 134.78,-45.28 121.95,-33.14"/>
</g>
<!-- 4 -->
<g id="node5" class="node">
<title>4</title>
<ellipse fill="none" stroke="black" cx="93" cy="-378" rx="27" ry="18"/>
<text text-anchor="middle" x="93" y="-374.3" font-family="Times New Roman,serif" font-size="14.00">4</text>
</g>
<!-- 3&#45;&#45;4 -->
<g id="edge5" class="edge">
<title>3&#45;&#45;4</title>
<path fill="none" stroke="black" d="M72.4,-432.41C76.64,-421.41 82.19,-407.03 86.46,-395.96"/>
</g>
<!-- 6 -->
<g id="node6" class="node">
<title>6</title>
<ellipse fill="none" stroke="black" cx="98" cy="-234" rx="27" ry="18"/>
<text text-anchor="middle" x="98" y="-230.3" font-family="Times New Roman,serif" font-size="14.00">6</text>
</g>
<!-- 3&#45;&#45;6 -->
<g id="edge6" class="edge">
<title>3&#45;&#45;6</title>
<path fill="none" stroke="black" d="M60.96,-431.98C52.95,-401.96 39.89,-338.07 57,-288 62.11,-273.03 73.37,-259.01 82.79,-249.15"/>
</g>
<!-- 3&#45;&#45;9 -->
<g id="edge7" class="edge">
<title>3&#45;&#45;9</title>
<path fill="none" stroke="black" d="M53.59,-433.9C34.47,-409.05 0,-357.29 0,-307 0,-307 0,-307 0,-161 0,-102.97 57.71,-53.59 88.36,-31.45"/>
</g>
<!-- 4&#45;&#45;6 -->
<g id="edge9" class="edge">
<title>4&#45;&#45;6</title>
<path fill="none" stroke="black" d="M106.75,-362.07C114.96,-352.1 124.62,-338.25 129,-324 133.7,-308.71 133.18,-303.44 129,-288 125.26,-274.21 116.95,-260.34 109.87,-250.24"/>
</g>
<!-- 5 -->
<g id="node8" class="node">
<title>5</title>
<ellipse fill="none" stroke="black" cx="93" cy="-306" rx="27" ry="18"/>
<text text-anchor="middle" x="93" y="-302.3" font-family="Times New Roman,serif" font-size="14.00">5</text>
</g>
<!-- 4&#45;&#45;5 -->
<g id="edge8" class="edge">
<title>4&#45;&#45;5</title>
<path fill="none" stroke="black" d="M93,-359.7C93,-348.85 93,-334.92 93,-324.1"/>
</g>
<!-- 7 -->
<g id="node9" class="node">
<title>7</title>
<ellipse fill="none" stroke="black" cx="107" cy="-162" rx="27" ry="18"/>
<text text-anchor="middle" x="107" y="-158.3" font-family="Times New Roman,serif" font-size="14.00">7</text>
</g>
<!-- 6&#45;&#45;7 -->
<g id="edge11" class="edge">
<title>6&#45;&#45;7</title>
<path fill="none" stroke="black" d="M100.18,-216.05C101.57,-205.21 103.38,-191.18 104.78,-180.28"/>
</g>
<!-- 5&#45;&#45;6 -->
<g id="edge10" class="edge">
<title>5&#45;&#45;6</title>
<path fill="none" stroke="black" d="M94.24,-287.7C95.01,-276.85 96.01,-262.92 96.78,-252.1"/>
</g>
<!-- 7&#45;&#45;8 -->
<g id="edge12" class="edge">
<title>7&#45;&#45;8</title>
<path fill="none" stroke="black" d="M121.98,-146.83C134.81,-134.69 153.22,-117.28 166.05,-105.14"/>
</g>
<!-- 7&#45;&#45;9 -->
<g id="edge13" class="edge">
<title>7&#45;&#45;9</title>
<path fill="none" stroke="black" d="M107,-143.87C107,-116.58 107,-63.52 107,-36.19"/>
</g>
</g>
</svg>
